<svg xmlns="http://www.w3.org/2000/svg" viewBox="0 0 32 32">
  <!-- Leaf shape -->
  <path d="M16 2C16 2 8 6 8 16C8 22 12 28 16 30C20 28 24 22 24 16C24 6 16 2 16 2Z" fill="#22c55e"/>
  <!-- Center vein -->
  <path d="M16 8V24" stroke="#166534" stroke-width="1.5" stroke-linecap="round"/>
  <!-- Side veins -->
  <path d="M16 12L12 15" stroke="#166534" stroke-width="1" stroke-linecap="round"/>
  <path d="M16 12L20 15" stroke="#166534" stroke-width="1" stroke-linecap="round"/>
  <path d="M16 17L11 20" stroke="#166534" stroke-width="1" stroke-linecap="round"/>
  <path d="M16 17L21 20" stroke="#166534" stroke-width="1" stroke-linecap="round"/>
  <!-- Connection nodes -->
  <circle cx="16" cy="8" r="2" fill="#166534"/>
  <circle cx="12" cy="15" r="1.5" fill="#166534"/>
  <circle cx="20" cy="15" r="1.5" fill="#166534"/>
  <circle cx="11" cy="20" r="1.5" fill="#166534"/>
  <circle cx="21" cy="20" r="1.5" fill="#166534"/>
</svg>
